# xmcd
#
# Track frame offsets: 
#        150
#        23154
#        40669
#        62222
#        83363
#        97627
#        118606
#        135972
#        148575
#
# Disc length: 2182 seconds
#
# Revision: 0
# Processed by: cddbd v1.5.2PL0 Copyright (c) Steve Scherf et al.
# Submitted via: ExactAudioCopy v1.3
#
DISCID=62088409
DTITLE=Dana Gillespie - Move Your Body Close To Me
DYEAR=1988
DGENRE=Blues, Pop
TTITLE0=Move Your Body Close To Me
TTITLE1=The Good Thing
TTITLE2=Don't Touch Me There
TTITLE3=In Danger Tonight
TTITLE4=Good And Direct
TTITLE5=Know My Love
TTITLE6=The Air That I Breathe
TTITLE7=Living In Reverse
TTITLE8=Haunted By You
EXTD=
EXTT0=
EXTT1=
EXTT2=
EXTT3=
EXTT4=
EXTT5=
EXTT6=
EXTT7=
EXTT8=
PLAYORDER=
